STARTFONT 2.1
FONT -Adobe-Times-Bold-I-Normal--12-120-75-75-P-68-iso10646-0400
SIZE 12 75 75
FONTBOUNDINGBOX 17 15 -2 -3
COMMENT $XConsortium: timBI12.bdf,v 1.14 95/01/26 18:06:17 gildea Exp $
COMMENT 
COMMENT +
COMMENT  Copyright 1984-1989, 1994 Adobe Systems Incorporated.
COMMENT  Copyright 1988, 1994 Digital Equipment Corporation.
COMMENT
COMMENT  Adobe is a trademark of Adobe Systems Incorporated which may be
COMMENT  registered in certain jurisdictions.
COMMENT  Permission to use these trademarks is hereby granted only in
COMMENT  association with the images described in this file.
COMMENT
COMMENT  Permission to use, copy, modify, distribute and sell this software
COMMENT  and its documentation for any purpose and without fee is hereby
COMMENT  granted, provided that the above copyright notices appear in all
COMMENT  copies and that both those copyright notices and this permission
COMMENT  notice appear in supporting documentation, and that the names of
COMMENT  Adobe Systems and Digital Equipment Corporation not be used in
COMMENT  advertising or publicity pertaining to distribution of the software
COMMENT  without specific, written prior permission.  Adobe Systems and
COMMENT  Digital Equipment Corporation make no representations about the
COMMENT  suitability of this software for any purpose.  It is provided "as
COMMENT  is" without express or implied warranty.
COMMENT -
STARTPROPERTIES 32
FOUNDRY "Adobe"
FAMILY_NAME "Times"
WEIGHT_NAME "Bold"
SLANT "I"
SETWIDTH_NAME "Normal"
ADD_STYLE_NAME ""
PIXEL_SIZE 12
POINT_SIZE 120
RESOLUTION_X 75
RESOLUTION_Y 75
SPACING "P"
AVERAGE_WIDTH 68
CHARSET_REGISTRY "iso10646"
CHARSET_ENCODING "0400"
CAP_HEIGHT 9
X_HEIGHT 6
FONT_ASCENT 11
FONT_DESCENT 3
FACE_NAME "Times Bold Italic"
COPYRIGHT "Copyright (c) 1984, 1987 Adobe Systems Incorporated. All Rights Reserved. Copyright (c) 1988, 1991 Digital Equipment Corporation. All Rights Reserved."
NOTICE "Times is a trademark of Linotype-Hell AG and/or its subsidiaries."

STARTCHAR space
ENCODING 32
SWIDTH 250 0
DWIDTH 3 0
BBX 0 0 0 0
BITMAP
ENDCHAR
STARTCHAR exclam
ENCODING 33
SWIDTH 389 0
DWIDTH 5 0
BBX 4 9 1 0
BITMAP
30
30
30
60
60
40
00
C0
C0
ENDCHAR
STARTCHAR quotedbl
ENCODING 34
SWIDTH 555 0
DWIDTH 7 0
BBX 5 3 3 6
BITMAP
D8
D8
90
ENDCHAR
STARTCHAR numbersign
ENCODING 35
SWIDTH 500 0
DWIDTH 7 0
BBX 7 9 0 0
BITMAP
14
14
7E
28
28
28
FC
50
50
ENDCHAR
STARTCHAR dollar
ENCODING 36
SWIDTH 500 0
DWIDTH 6 0
BBX 7 11 0 -1
BITMAP
04
1C
2A
68
70
38
1C
2C
A8
70
40
ENDCHAR
STARTCHAR percent
ENCODING 37
SWIDTH 833 0
DWIDTH 12 0
BBX 11 9 1 0
BITMAP
3100
6F00
CA00
D400
E4C0
09A0
0B20
1340
1380
ENDCHAR
STARTCHAR ampersand
ENCODING 38
SWIDTH 778 0
DWIDTH 9 0
BBX 9 9 0 0
BITMAP
0C00
1A00
1A00
1C00
7B80
ED00
CE00
E680
7B00
ENDCHAR
STARTCHAR quotesingle
ENCODING 39
SWIDTH 278 0
DWIDTH 4 0
BBX 2 3 2 6
BITMAP
C0
C0
80
ENDCHAR
STARTCHAR parenleft
ENCODING 40
SWIDTH 333 0
DWIDTH 6 0
BBX 5 11 1 -2
BITMAP
08
30
60
60
C0
C0
C0
C0
40
60
20
ENDCHAR
STARTCHAR parenright
ENCODING 41
SWIDTH 333 0
DWIDTH 6 0
BBX 5 11 0 -2
BITMAP
20
30
10
18
18
18
18
30
30
60
80
ENDCHAR
STARTCHAR asterisk
ENCODING 42
SWIDTH 500 0
DWIDTH 6 0
BBX 5 5 1 4
BITMAP
20
F8
70
F8
20
ENDCHAR
STARTCHAR plus
ENCODING 43
SWIDTH 570 0
DWIDTH 7 0
BBX 5 5 1 1
BITMAP
20
20
F8
20
20
ENDCHAR
STARTCHAR comma
ENCODING 44
SWIDTH 250 0
DWIDTH 4 0
BBX 3 3 0 -1
BITMAP
60
60
C0
ENDCHAR
STARTCHAR minus
ENCODING 45
SWIDTH 606 0
DWIDTH 8 0
BBX 6 1 1 3
BITMAP
FC
ENDCHAR
STARTCHAR period
ENCODING 46
SWIDTH 250 0
DWIDTH 4 0
BBX 2 2 1 0
BITMAP
C0
C0
ENDCHAR
STARTCHAR slash
ENCODING 47
SWIDTH 278 0
DWIDTH 5 0
BBX 4 9 1 0
BITMAP
10
10
30
20
60
40
C0
80
80
ENDCHAR
STARTCHAR zero
ENCODING 48
SWIDTH 500 0
DWIDTH 6 0
BBX 7 9 0 0
BITMAP
1C
64
66
C6
C6
CC
CC
D8
70
ENDCHAR
STARTCHAR one
ENCODING 49
SWIDTH 500 0
DWIDTH 6 0
BBX 6 9 0 0
BITMAP
0C
3C
18
38
30
30
60
60
F0
ENDCHAR
STARTCHAR two
ENCODING 50
SWIDTH 500 0
DWIDTH 6 0
BBX 6 9 0 0
BITMAP
38
7C
4C
0C
18
30
40
F8
F0
ENDCHAR
STARTCHAR three
ENCODING 51
SWIDTH 500 0
DWIDTH 6 0
BBX 7 9 -1 0
BITMAP
1C
36
06
0E
18
0C
CC
CC
78
ENDCHAR
STARTCHAR four
ENCODING 52
SWIDTH 500 0
DWIDTH 6 0
BBX 6 9 0 0
BITMAP
04
0C
1C
28
48
FC
F8
10
30
ENDCHAR
STARTCHAR five
ENCODING 53
SWIDTH 500 0
DWIDTH 6 0
BBX 7 9 0 0
BITMAP
1E
3C
20
78
0C
0C
CC
D8
70
ENDCHAR
STARTCHAR six
ENCODING 54
SWIDTH 500 0
DWIDTH 6 0
BBX 7 9 0 0
BITMAP
0E
38
60
78
CC
CC
CC
D8
70
ENDCHAR
STARTCHAR seven
ENCODING 55
SWIDTH 500 0
DWIDTH 6 0
BBX 7 9 1 0
BITMAP
FE
FC
88
10
30
20
60
40
C0
ENDCHAR
STARTCHAR eight
ENCODING 56
SWIDTH 500 0
DWIDTH 6 0
BBX 6 9 0 0
BITMAP
3C
64
6C
38
78
DC
8C
D8
70
ENDCHAR
STARTCHAR nine
ENCODING 57
SWIDTH 500 0
DWIDTH 6 0
BBX 7 9 0 0
BITMAP
1C
36
66
66
6E
3C
0C
38
E0
ENDCHAR
STARTCHAR colon
ENCODING 58
SWIDTH 333 0
DWIDTH 5 0
BBX 3 6 1 0
BITMAP
60
60
00
00
C0
C0
ENDCHAR
STARTCHAR semicolon
ENCODING 59
SWIDTH 333 0
DWIDTH 5 0
BBX 4 7 0 -1
BITMAP
30
30
00
00
60
60
C0
ENDCHAR
STARTCHAR less
ENCODING 60
SWIDTH 570 0
DWIDTH 9 0
BBX 7 7 1 0
BITMAP
06
1C
70
C0
70
1C
06
ENDCHAR
STARTCHAR equal
ENCODING 61
SWIDTH 570 0
DWIDTH 8 0
BBX 6 3 1 2
BITMAP
FC
00
FC
ENDCHAR
STARTCHAR greater
ENCODING 62
SWIDTH 570 0
DWIDTH 9 0
BBX 7 7 1 0
BITMAP
C0
70
1C
06
1C
70
C0
ENDCHAR
STARTCHAR question
ENCODING 63
SWIDTH 500 0
DWIDTH 6 0
BBX 6 9 1 0
BITMAP
38
6C
0C
38
60
40
00
C0
C0
ENDCHAR
STARTCHAR at
ENCODING 64
SWIDTH 832 0
DWIDTH 12 0
BBX 10 10 1 -1
BITMAP
0F00
3880
6040
4D40
DA40
DA40
DA80
CD00
6000
3E00
ENDCHAR
STARTCHAR A
ENCODING 65
SWIDTH 667 0
DWIDTH 8 0
BBX 8 9 0 0
BITMAP
06
0E
0E
1A
12
3E
66
46
EF
ENDCHAR
STARTCHAR B
ENCODING 66
SWIDTH 667 0
DWIDTH 8 0
BBX 9 9 0 0
BITMAP
3F00
1980
1180
3300
3E00
3300
6300
6600
FC00
ENDCHAR
STARTCHAR C
ENCODING 67
SWIDTH 667 0
DWIDTH 8 0
BBX 8 9 1 0
BITMAP
1F
33
62
60
C0
C0
C2
EC
78
ENDCHAR
STARTCHAR D
ENCODING 68
SWIDTH 722 0
DWIDTH 9 0
BBX 9 9 0 0
BITMAP
3E00
1B00
1980
3180
3180
2180
6300
6600
FC00
ENDCHAR
STARTCHAR E
ENCODING 69
SWIDTH 667 0
DWIDTH 8 0
BBX 9 9 0 0
BITMAP
3F80
1980
1800
3100
3E00
3200
6000
6300
FE00
ENDCHAR
STARTCHAR F
ENCODING 70
SWIDTH 667 0
DWIDTH 8 0
BBX 9 9 0 0
BITMAP
3F80
1980
1800
3200
3E00
3400
6000
6000
F000
ENDCHAR
STARTCHAR G
ENCODING 71
SWIDTH 722 0
DWIDTH 9 0
BBX 8 9 1 0
BITMAP
1F
33
62
60
C0
CF
C6
EC
7C
ENDCHAR
STARTCHAR H
ENCODING 72
SWIDTH 778 0
DWIDTH 10 0
BBX 11 9 0 0
BITMAP
3DE0
18C0
18C0
3180
3F80
3180
6300
6300
E780
ENDCHAR
STARTCHAR I
ENCODING 73
SWIDTH 389 0
DWIDTH 5 0
BBX 6 9 0 0
BITMAP
3C
18
18
30
30
30
60
60
F0
ENDCHAR
STARTCHAR J
ENCODING 74
SWIDTH 500 0
DWIDTH 6 0
BBX 8 10 -1 -1
BITMAP
0F
06
0C
0C
0C
18
18
D8
F0
60
ENDCHAR
STARTCHAR K
ENCODING 75
SWIDTH 667 0
DWIDTH 8 0
BBX 10 9 -1 0
BITMAP
3DC0
1980
1300
3600
3C00
3600
6600
6300
F780
ENDCHAR
STARTCHAR L
ENCODING 76
SWIDTH 611 0
DWIDTH 8 0
BBX 8 9 0 0
BITMAP
3C
18
18
30
30
30
60
63
FE
ENDCHAR
STARTCHAR M
ENCODING 77
SWIDTH 889 0
DWIDTH 11 0
BBX 12 9 0 0
BITMAP
3870
18E0
18E0
3940
2AC0
2EC0
6D80
6D80
E9C0
ENDCHAR
STARTCHAR N
ENCODING 78
SWIDTH 722 0
DWIDTH 9 0
BBX 10 9 0 0
BITMAP
39C0
1880
1980
3D00
2D00
2F00
6600
4600
F200
ENDCHAR
STARTCHAR O
ENCODING 79
SWIDTH 722 0
DWIDTH 9 0
BBX 8 9 1 0
BITMAP
1E
33
63
63
C3
C6
C6
CC
78
ENDCHAR
STARTCHAR P
ENCODING 80
SWIDTH 611 0
DWIDTH 8 0
BBX 9 9 0 0
BITMAP
3F00
1980
1980
3380
3F00
3000
6000
6000
F000
ENDCHAR
STARTCHAR Q
ENCODING 81
SWIDTH 722 0
DWIDTH 9 0
BBX 8 12 1 -3
BITMAP
1E
33
63
63
C3
C6
C6
CC
78
20
76
DC
ENDCHAR
STARTCHAR R
ENCODING 82
SWIDTH 667 0
DWIDTH 8 0
BBX 8 9 0 0
BITMAP
3E
1B
13
33
3E
34
66
66
F7
ENDCHAR
STARTCHAR S
ENCODING 83
SWIDTH 556 0
DWIDTH 8 0
BBX 7 9 1 0
BITMAP
3A
66
62
30
18
0C
8C
CC
F8
ENDCHAR
STARTCHAR T
ENCODING 84
SWIDTH 611 0
DWIDTH 7 0
BBX 8 9 1 0
BITMAP
7F
DA
18
30
30
30
60
60
F0
ENDCHAR
STARTCHAR U
ENCODING 85
SWIDTH 722 0
DWIDTH 10 0
BBX 10 9 1 0
BITMAP
7BC0
3180
3100
6300
6300
6200
C600
C400
7800
ENDCHAR
STARTCHAR V
ENCODING 86
SWIDTH 667 0
DWIDTH 8 0
BBX 9 9 1 0
BITMAP
F780
6300
6600
6C00
6800
7800
7000
6000
4000
ENDCHAR
STARTCHAR W
ENCODING 87
SWIDTH 889 0
DWIDTH 11 0
BBX 12 9 1 0
BITMAP
EF70
6660
6640
6EC0
6A80
3A80
3300
3300
2200
ENDCHAR
STARTCHAR X
ENCODING 88
SWIDTH 667 0
DWIDTH 8 0
BBX 10 9 -1 0
BITMAP
7BC0
3180
1B00
0E00
0C00
1E00
3600
6300
F780
ENDCHAR
STARTCHAR Y
ENCODING 89
SWIDTH 611 0
DWIDTH 7 0
BBX 9 9 0 0
BITMAP
7B80
3300
3200
3400
1800
1800
3000
3000
F800
ENDCHAR
STARTCHAR Z
ENCODING 90
SWIDTH 611 0
DWIDTH 7 0
BBX 8 9 0 0
BITMAP
3F
67
06
0C
18
30
60
E2
FE
ENDCHAR
STARTCHAR bracketleft
ENCODING 91
SWIDTH 333 0
DWIDTH 6 0
BBX 7 11 0 -2
BITMAP
1E
18
18
30
30
30
60
60
60
C0
F0
ENDCHAR
STARTCHAR backslash
ENCODING 92
SWIDTH 278 0
DWIDTH 5 0
BBX 4 9 0 0
BITMAP
80
80
C0
40
60
20
30
10
10
ENDCHAR
STARTCHAR bracketright
ENCODING 93
SWIDTH 333 0
DWIDTH 7 0
BBX 7 11 0 -2
BITMAP
1E
06
0C
0C
0C
18
18
18
30
30
F0
ENDCHAR
STARTCHAR asciicircum
ENCODING 94
SWIDTH 570 0
DWIDTH 8 0
BBX 6 5 1 4
BITMAP
10
38
68
CC
84
ENDCHAR
STARTCHAR underscore
ENCODING 95
SWIDTH 500 0
DWIDTH 6 0
BBX 6 1 0 -2
BITMAP
FC
ENDCHAR
STARTCHAR grave
ENCODING 96
SWIDTH 333 0
DWIDTH 4 0
BBX 3 2 2 7
BITMAP
C0
20
ENDCHAR
STARTCHAR a
ENCODING 97
SWIDTH 500 0
DWIDTH 7 0
BBX 7 6 0 0
BITMAP
34
6C
CC
D8
DA
6C
ENDCHAR
STARTCHAR b
ENCODING 98
SWIDTH 500 0
DWIDTH 6 0
BBX 6 9 0 0
BITMAP
70
30
20
78
6C
4C
CC
98
F0
ENDCHAR
STARTCHAR c
ENCODING 99
SWIDTH 444 0
DWIDTH 5 0
BBX 5 6 0 0
BITMAP
38
58
C0
C0
D8
70
ENDCHAR
STARTCHAR d
ENCODING 100
SWIDTH 500 0
DWIDTH 6 0
BBX 7 9 0 0
BITMAP
0E
06
0C
3C
6C
C8
D8
D8
6C
ENDCHAR
STARTCHAR e
ENCODING 101
SWIDTH 444 0
DWIDTH 6 0
BBX 6 6 0 0
BITMAP
38
6C
D8
E0
C8
70
ENDCHAR
STARTCHAR f
ENCODING 102
SWIDTH 333 0
DWIDTH 3 0
BBX 7 12 -2 -3
BITMAP
0E
1A
18
3C
10
30
30
30
30
20
E0
C0
ENDCHAR
STARTCHAR g
ENCODING 103
SWIDTH 500 0
DWIDTH 5 0
BBX 7 9 -1 -3
BITMAP
3E
6C
6C
38
30
78
9C
CC
78
ENDCHAR
STARTCHAR h
ENCODING 104
SWIDTH 556 0
DWIDTH 6 0
BBX 6 9 0 0
BITMAP
70
30
20
78
6C
6C
C8
D8
DC
ENDCHAR
STARTCHAR i
ENCODING 105
SWIDTH 278 0
DWIDTH 4 0
BBX 4 9 0 0
BITMAP
30
30
00
60
60
60
C0
C0
E0
ENDCHAR
STARTCHAR j
ENCODING 106
SWIDTH 278 0
DWIDTH 4 0
BBX 7 12 -2 -3
BITMAP
06
06
00
1C
0C
18
18
18
30
30
B0
60
ENDCHAR
STARTCHAR k
ENCODING 107
SWIDTH 500 0
DWIDTH 6 0
BBX 7 9 0 0
BITMAP
38
18
10
36
3C
78
68
68
CC
ENDCHAR
STARTCHAR l
ENCODING 108
SWIDTH 278 0
DWIDTH 4 0
BBX 4 9 0 0
BITMAP
70
30
20
60
60
40
C0
D0
60
ENDCHAR
STARTCHAR m
ENCODING 109
SWIDTH 778 0
DWIDTH 9 0
BBX 10 6 0 0
BITMAP
DB00
6D80
6D80
C900
DB40
DB80
ENDCHAR
STARTCHAR n
ENCODING 110
SWIDTH 556 0
DWIDTH 6 0
BBX 6 6 0 0
BITMAP
D8
6C
6C
C8
D8
DC
ENDCHAR
STARTCHAR o
ENCODING 111
SWIDTH 500 0
DWIDTH 6 0
BBX 6 6 0 0
BITMAP
38
6C
CC
CC
D8
70
ENDCHAR
STARTCHAR p
ENCODING 112
SWIDTH 500 0
DWIDTH 6 0
BBX 8 9 -2 -3
BITMAP
3E
1B
1B
33
36
3C
60
60
F0
ENDCHAR
STARTCHAR q
ENCODING 113
SWIDTH 500 0
DWIDTH 6 0
BBX 6 9 0 -3
BITMAP
34
6C
CC
C8
D8
78
10
30
78
ENDCHAR
STARTCHAR r
ENCODING 114
SWIDTH 389 0
DWIDTH 5 0
BBX 5 6 0 0
BITMAP
D8
68
60
C0
C0
C0
ENDCHAR
STARTCHAR s
ENCODING 115
SWIDTH 389 0
DWIDTH 5 0
BBX 5 6 0 0
BITMAP
78
C8
60
38
98
F0
ENDCHAR
STARTCHAR t
ENCODING 116
SWIDTH 278 0
DWIDTH 3 0
BBX 4 7 0 0
BITMAP
20
F0
60
40
C0
D0
60
ENDCHAR
STARTCHAR u
ENCODING 117
SWIDTH 556 0
DWIDTH 7 0
BBX 7 6 0 0
BITMAP
E6
6C
6C
CC
D8
6C
ENDCHAR
STARTCHAR v
ENCODING 118
SWIDTH 444 0
DWIDTH 6 0
BBX 6 6 0 0
BITMAP
EC
64
6C
68
50
60
ENDCHAR
STARTCHAR w
ENCODING 119
SWIDTH 667 0
DWIDTH 8 0
BBX 9 6 0 0
BITMAP
ED80
6D00
6D00
7E00
6C00
4800
ENDCHAR
STARTCHAR x
ENCODING 120
SWIDTH 500 0
DWIDTH 6 0
BBX 6 6 0 0
BITMAP
6C
38
30
38
58
DC
ENDCHAR
STARTCHAR y
ENCODING 121
SWIDTH 444 0
DWIDTH 6 0
BBX 7 9 -1 -3
BITMAP
76
32
34
34
1C
18
10
D0
E0
ENDCHAR
STARTCHAR z
ENCODING 122
SWIDTH 389 0
DWIDTH 6 0
BBX 6 7 0 -1
BITMAP
7C
D8
30
60
C0
E8
30
ENDCHAR
STARTCHAR braceleft
ENCODING 123
SWIDTH 348 0
DWIDTH 6 0
BBX 6 11 1 -2
BITMAP
1C
30
30
30
60
C0
60
60
C0
C0
70
ENDCHAR
STARTCHAR bar
ENCODING 124
SWIDTH 220 0
DWIDTH 4 0
BBX 1 9 2 0
BITMAP
80
80
80
80
80
80
80
80
80
ENDCHAR
STARTCHAR braceright
ENCODING 125
SWIDTH 348 0
DWIDTH 6 0
BBX 6 11 0 -2
BITMAP
38
0C
0C
18
18
0C
18
30
30
30
E0
ENDCHAR
STARTCHAR asciitilde
ENCODING 126
SWIDTH 570 0
DWIDTH 9 0
BBX 7 2 1 3
BITMAP
72
9C
ENDCHAR
STARTCHAR space
ENCODING 160
SWIDTH 250 0
DWIDTH 3 0
BBX 0 0 0 0
BITMAP
ENDCHAR
STARTCHAR exclamdown
ENCODING 161
SWIDTH 389 0
DWIDTH 4 0
BBX 4 9 0 -3
BITMAP
30
30
00
20
60
60
C0
C0
C0
ENDCHAR
STARTCHAR cent
ENCODING 162
SWIDTH 500 0
DWIDTH 6 0
BBX 6 10 0 -2
BITMAP
10
10
3C
68
C0
C0
D8
70
20
20
ENDCHAR
STARTCHAR sterling
ENCODING 163
SWIDTH 500 0
DWIDTH 6 0
BBX 6 9 0 0
BITMAP
1C
34
30
78
30
30
E0
B4
F8
ENDCHAR
STARTCHAR currency
ENCODING 164
SWIDTH 500 0
DWIDTH 8 0
BBX 6 6 1 1
BITMAP
84
78
48
48
78
84
ENDCHAR
STARTCHAR yen
ENCODING 165
SWIDTH 500 0
DWIDTH 6 0
BBX 7 9 0 0
BITMAP
E6
6C
68
30
F8
20
F8
60
F0
ENDCHAR
STARTCHAR brokenbar
ENCODING 166
SWIDTH 220 0
DWIDTH 4 0
BBX 1 9 2 0
BITMAP
80
80
80
00
00
80
80
80
80
ENDCHAR
STARTCHAR section
ENCODING 167
SWIDTH 500 0
DWIDTH 7 0
BBX 7 12 0 -3
BITMAP
0E
16
10
38
5C
4C
64
78
38
10
D0
E0
ENDCHAR
STARTCHAR dieresis
ENCODING 168
SWIDTH 333 0
DWIDTH 5 0
BBX 3 2 2 7
BITMAP
A0
A0
ENDCHAR
STARTCHAR copyright
ENCODING 169
SWIDTH 747 0
DWIDTH 11 0
BBX 9 9 1 0
BITMAP
3E00
4100
9E80
A280
A080
A280
9C80
4100
3E00
ENDCHAR
STARTCHAR ordfeminine
ENCODING 170
SWIDTH 266 0
DWIDTH 6 0
BBX 5 6 1 3
BITMAP
38
48
50
68
00
F0
ENDCHAR
STARTCHAR guillemotleft
ENCODING 171
SWIDTH 500 0
DWIDTH 9 0
BBX 7 5 1 1
BITMAP
36
6C
D8
D8
6C
ENDCHAR
STARTCHAR logicalnot
ENCODING 172
SWIDTH 606 0
DWIDTH 8 0
BBX 6 4 1 2
BITMAP
FC
04
04
04
ENDCHAR
STARTCHAR hyphen
ENCODING 173
SWIDTH 333 0
DWIDTH 4 0
BBX 3 2 1 2
BITMAP
E0
E0
ENDCHAR
STARTCHAR registered
ENCODING 174
SWIDTH 747 0
DWIDTH 11 0
BBX 9 9 1 0
BITMAP
3E00
4100
BC80
9480
9880
9480
B680
4100
3E00
ENDCHAR
STARTCHAR macron
ENCODING 175
SWIDTH 333 0
DWIDTH 4 0
BBX 4 1 1 7
BITMAP
F0
ENDCHAR
STARTCHAR degree
ENCODING 176
SWIDTH 400 0
DWIDTH 5 0
BBX 4 4 1 5
BITMAP
60
90
90
60
ENDCHAR
STARTCHAR plusminus
ENCODING 177
SWIDTH 570 0
DWIDTH 7 0
BBX 5 7 1 0
BITMAP
20
20
F8
20
20
00
F8
ENDCHAR
STARTCHAR twosuperior
ENCODING 178
SWIDTH 300 0
DWIDTH 4 0
BBX 4 5 1 4
BITMAP
60
B0
20
40
F0
ENDCHAR
STARTCHAR threesuperior
ENCODING 179
SWIDTH 300 0
DWIDTH 4 0
BBX 4 5 1 4
BITMAP
70
30
60
30
E0
ENDCHAR
STARTCHAR acute
ENCODING 180
SWIDTH 333 0
DWIDTH 4 0
BBX 3 2 2 7
BITMAP
60
80
ENDCHAR
STARTCHAR mu
ENCODING 181
SWIDTH 576 0
DWIDTH 7 0
BBX 8 9 -1 -3
BITMAP
73
36
36
66
6C
76
C0
80
C0
ENDCHAR
STARTCHAR paragraph
ENCODING 182
SWIDTH 500 0
DWIDTH 7 0
BBX 7 12 1 -3
BITMAP
3E
74
F4
EC
E8
68
28
50
50
50
A0
A0
ENDCHAR
STARTCHAR periodcentered
ENCODING 183
SWIDTH 250 0
DWIDTH 3 0
BBX 2 2 1 3
BITMAP
C0
C0
ENDCHAR
STARTCHAR cedilla
ENCODING 184
SWIDTH 333 0
DWIDTH 4 0
BBX 4 3 -1 -3
BITMAP
20
B0
60
ENDCHAR
STARTCHAR onesuperior
ENCODING 185
SWIDTH 300 0
DWIDTH 4 0
BBX 3 5 1 4
BITMAP
20
E0
40
40
E0
ENDCHAR
STARTCHAR ordmasculine
ENCODING 186
SWIDTH 300 0
DWIDTH 6 0
BBX 5 6 1 3
BITMAP
38
48
48
70
00
F0
ENDCHAR
STARTCHAR guillemotright
ENCODING 187
SWIDTH 500 0
DWIDTH 9 0
BBX 7 5 1 1
BITMAP
6C
36
36
6C
D8
ENDCHAR
STARTCHAR onequarter
ENCODING 188
SWIDTH 750 0
DWIDTH 9 0
BBX 9 9 0 0
BITMAP
2300
E200
4600
4C00
E900
1B00
3500
2F80
6200
ENDCHAR
STARTCHAR onehalf
ENCODING 189
SWIDTH 750 0
DWIDTH 9 0
BBX 9 9 0 0
BITMAP
2300
E200
4600
4C00
EB00
1D80
3100
2200
6780
ENDCHAR
STARTCHAR threequarters
ENCODING 190
SWIDTH 750 0
DWIDTH 9 0
BBX 9 9 0 0
BITMAP
7300
3200
6600
3C00
E900
1B00
3500
2F80
6200
ENDCHAR
STARTCHAR questiondown
ENCODING 191
SWIDTH 500 0
DWIDTH 6 0
BBX 6 9 0 -3
BITMAP
0C
0C
00
08
18
70
C0
D8
70
ENDCHAR
STARTCHAR Agrave
ENCODING 192
SWIDTH 667 0
DWIDTH 8 0
BBX 8 12 0 0
BITMAP
0C
02
00
06
0E
0E
1A
12
3E
66
46
EF
ENDCHAR
STARTCHAR Aacute
ENCODING 193
SWIDTH 667 0
DWIDTH 8 0
BBX 9 12 0 0
BITMAP
0180
0200
0000
0600
0E00
0E00
1A00
1200
3E00
6600
4600
EF00
ENDCHAR
STARTCHAR Acircumflex
ENCODING 194
SWIDTH 667 0
DWIDTH 8 0
BBX 8 12 0 0
BITMAP
06
0D
00
06
0E
0E
1A
12
3E
66
46
EF
ENDCHAR
STARTCHAR Atilde
ENCODING 195
SWIDTH 667 0
DWIDTH 8 0
BBX 9 12 0 0
BITMAP
0680
0B00
0000
0600
0E00
0E00
1A00
1200
3E00
6600
4600
EF00
ENDCHAR
STARTCHAR Adieresis
ENCODING 196
SWIDTH 667 0
DWIDTH 8 0
BBX 8 12 0 0
BITMAP
09
09
00
06
0E
0E
1A
12
3E
66
46
EF
ENDCHAR
STARTCHAR Aring
ENCODING 197
SWIDTH 667 0
DWIDTH 8 0
BBX 8 12 0 0
BITMAP
06
09
06
06
0E
0E
1A
12
3E
66
46
EF
ENDCHAR
STARTCHAR AE
ENCODING 198
SWIDTH 944 0
DWIDTH 12 0
BBX 14 9 -2 0
BITMAP
07FC
03CC
06C0
0D90
09F0
1FA0
3300
6318
F7F0
ENDCHAR
STARTCHAR Ccedilla
ENCODING 199
SWIDTH 667 0
DWIDTH 8 0
BBX 8 12 1 -3
BITMAP
1F
33
62
60
C0
C0
C2
EC
78
10
58
30
ENDCHAR
STARTCHAR Egrave
ENCODING 200
SWIDTH 667 0
DWIDTH 8 0
BBX 9 12 0 0
BITMAP
1800
0400
0000
3F80
1980
1800
3100
3E00
3200
6000
6300
FE00
ENDCHAR
STARTCHAR Eacute
ENCODING 201
SWIDTH 667 0
DWIDTH 8 0
BBX 9 12 0 0
BITMAP
0180
0200
0000
3F80
1980
1800
3100
3E00
3200
6000
6300
FE00
ENDCHAR
STARTCHAR Ecircumflex
ENCODING 202
SWIDTH 667 0
DWIDTH 8 0
BBX 9 12 0 0
BITMAP
0600
0D00
0000
3F80
1980
1800
3100
3E00
3200
6000
6300
FE00
ENDCHAR
STARTCHAR Edieresis
ENCODING 203
SWIDTH 667 0
DWIDTH 8 0
BBX 9 12 0 0
BITMAP
0900
0900
0000
3F80
1980
1800
3100
3E00
3200
6000
6300
FE00
ENDCHAR
STARTCHAR Igrave
ENCODING 204
SWIDTH 389 0
DWIDTH 5 0
BBX 6 12 0 0
BITMAP
30
08
00
3C
18
18
30
30
30
60
60
F0
ENDCHAR
STARTCHAR Iacute
ENCODING 205
SWIDTH 389 0
DWIDTH 5 0
BBX 7 12 0 0
BITMAP
06
08
00
3C
18
18
30
30
30
60
60
F0
ENDCHAR
STARTCHAR Icircumflex
ENCODING 206
SWIDTH 389 0
DWIDTH 5 0
BBX 6 12 0 0
BITMAP
18
34
00
3C
18
18
30
30
30
60
60
F0
ENDCHAR
STARTCHAR Idieresis
ENCODING 207
SWIDTH 389 0
DWIDTH 5 0
BBX 6 12 0 0
BITMAP
24
24
00
3C
18
18
30
30
30
60
60
F0
ENDCHAR
STARTCHAR Eth
ENCODING 208
SWIDTH 722 0
DWIDTH 9 0
BBX 9 9 0 0
BITMAP
3E00
1B00
1980
3180
7980
2180
6300
6600
FC00
ENDCHAR
STARTCHAR Ntilde
ENCODING 209
SWIDTH 722 0
DWIDTH 9 0
BBX 10 12 0 0
BITMAP
0680
0B00
0000
39C0
1880
1980
3D00
2D00
2F00
6600
4600
F200
ENDCHAR
STARTCHAR Ograve
ENCODING 210
SWIDTH 722 0
DWIDTH 9 0
BBX 8 12 1 0
BITMAP
18
04
00
1E
33
63
63
C3
C6
C6
CC
78
ENDCHAR
STARTCHAR Oacute
ENCODING 211
SWIDTH 722 0
DWIDTH 9 0
BBX 8 12 1 0
BITMAP
03
04
00
1E
33
63
63
C3
C6
C6
CC
78
ENDCHAR
STARTCHAR Ocircumflex
ENCODING 212
SWIDTH 722 0
DWIDTH 9 0
BBX 8 12 1 0
BITMAP
0C
1A
00
1E
33
63
63
C3
C6
C6
CC
78
ENDCHAR
STARTCHAR Otilde
ENCODING 213
SWIDTH 722 0
DWIDTH 9 0
BBX 8 12 1 0
BITMAP
0D
16
00
1E
33
63
63
C3
C6
C6
CC
78
ENDCHAR
STARTCHAR Odieresis
ENCODING 214
SWIDTH 722 0
DWIDTH 9 0
BBX 8 12 1 0
BITMAP
12
12
00
1E
33
63
63
C3
C6
C6
CC
78
ENDCHAR
STARTCHAR multiply
ENCODING 215
SWIDTH 570 0
DWIDTH 7 0
BBX 5 5 1 1
BITMAP
88
70
20
70
88
ENDCHAR
STARTCHAR Oslash
ENCODING 216
SWIDTH 722 0
DWIDTH 9 0
BBX 8 11 1 -1
BITMAP
03
1E
37
67
6B
CB
D6
E6
EC
78
C0
ENDCHAR
STARTCHAR Ugrave
ENCODING 217
SWIDTH 722 0
DWIDTH 10 0
BBX 10 12 1 0
BITMAP
1800
0400
0000
7BC0
3180
3100
6300
6300
6200
C600
C400
7800
ENDCHAR
STARTCHAR Uacute
ENCODING 218
SWIDTH 722 0
DWIDTH 10 0
BBX 10 12 1 0
BITMAP
0300
0400
0000
7BC0
3180
3100
6300
6300
6200
C600
C400
7800
ENDCHAR
STARTCHAR Ucircumflex
ENCODING 219
SWIDTH 722 0
DWIDTH 10 0
BBX 10 12 1 0
BITMAP
0600
0D00
0000
7BC0
3180
3100
6300
6300
6200
C600
C400
7800
ENDCHAR
STARTCHAR Udieresis
ENCODING 220
SWIDTH 722 0
DWIDTH 10 0
BBX 10 12 1 0
BITMAP
0900
0900
0000
7BC0
3180
3100
6300
6300
6200
C600
C400
7800
ENDCHAR
STARTCHAR Yacute
ENCODING 221
SWIDTH 611 0
DWIDTH 7 0
BBX 9 12 0 0
BITMAP
0300
0400
0000
7B80
3300
3200
3400
1800
1800
3000
3000
F800
ENDCHAR
STARTCHAR Thorn
ENCODING 222
SWIDTH 611 0
DWIDTH 8 0
BBX 8 9 0 0
BITMAP
3C
18
1E
33
33
37
7E
60
F0
ENDCHAR
STARTCHAR germandbls
ENCODING 223
SWIDTH 500 0
DWIDTH 7 0
BBX 9 12 -2 -3
BITMAP
0700
0D80
0D80
0B00
1B00
1900
1900
1B00
1600
3000
B000
6000
ENDCHAR
STARTCHAR agrave
ENCODING 224
SWIDTH 500 0
DWIDTH 7 0
BBX 7 9 0 0
BITMAP
60
10
00
34
6C
CC
D8
DA
6C
ENDCHAR
STARTCHAR aacute
ENCODING 225
SWIDTH 500 0
DWIDTH 7 0
BBX 7 9 0 0
BITMAP
0C
10
00
34
6C
CC
D8
DA
6C
ENDCHAR
STARTCHAR acircumflex
ENCODING 226
SWIDTH 500 0
DWIDTH 7 0
BBX 7 9 0 0
BITMAP
18
34
00
34
6C
CC
D8
DA
6C
ENDCHAR
STARTCHAR atilde
ENCODING 227
SWIDTH 500 0
DWIDTH 7 0
BBX 7 9 0 0
BITMAP
1A
2C
00
34
6C
CC
D8
DA
6C
ENDCHAR
STARTCHAR adieresis
ENCODING 228
SWIDTH 500 0
DWIDTH 7 0
BBX 7 9 0 0
BITMAP
28
28
00
34
6C
CC
D8
DA
6C
ENDCHAR
STARTCHAR aring
ENCODING 229
SWIDTH 500 0
DWIDTH 7 0
BBX 7 9 0 0
BITMAP
18
24
18
34
6C
CC
D8
DA
6C
ENDCHAR
STARTCHAR ae
ENCODING 230
SWIDTH 722 0
DWIDTH 10 0
BBX 10 6 0 0
BITMAP
3780
6EC0
CD80
DE00
DC80
6F00
ENDCHAR
STARTCHAR ccedilla
ENCODING 231
SWIDTH 444 0
DWIDTH 5 0
BBX 5 9 0 -3
BITMAP
38
58
C0
C0
D8
70
20
B0
60
ENDCHAR
STARTCHAR egrave
ENCODING 232
SWIDTH 444 0
DWIDTH 6 0
BBX 6 9 0 0
BITMAP
30
08
00
38
6C
D8
E0
C8
70
ENDCHAR
STARTCHAR eacute
ENCODING 233
SWIDTH 444 0
DWIDTH 6 0
BBX 6 9 0 0
BITMAP
0C
10
00
38
6C
D8
E0
C8
70
ENDCHAR
STARTCHAR ecircumflex
ENCODING 234
SWIDTH 444 0
DWIDTH 6 0
BBX 6 9 0 0
BITMAP
30
68
00
38
6C
D8
E0
C8
70
ENDCHAR
STARTCHAR edieresis
ENCODING 235
SWIDTH 444 0
DWIDTH 6 0
BBX 6 9 0 0
BITMAP
28
28
00
38
6C
D8
E0
C8
70
ENDCHAR
STARTCHAR igrave
ENCODING 236
SWIDTH 278 0
DWIDTH 3 0
BBX 3 9 0 0
BITMAP
C0
20
00
60
60
60
C0
C0
E0
ENDCHAR
STARTCHAR iacute
ENCODING 237
SWIDTH 278 0
DWIDTH 3 0
BBX 4 9 0 0
BITMAP
30
40
00
60
60
60
C0
C0
E0
ENDCHAR
STARTCHAR icircumflex
ENCODING 238
SWIDTH 278 0
DWIDTH 3 0
BBX 4 9 0 0
BITMAP
60
D0
00
60
60
60
C0
C0
E0
ENDCHAR
STARTCHAR idieresis
ENCODING 239
SWIDTH 278 0
DWIDTH 3 0
BBX 4 9 0 0
BITMAP
50
50
00
60
60
60
C0
C0
E0
ENDCHAR
STARTCHAR eth
ENCODING 240
SWIDTH 500 0
DWIDTH 6 0
BBX 6 9 0 0
BITMAP
34
38
48
3C
6C
CC
CC
D8
70
ENDCHAR
STARTCHAR ntilde
ENCODING 241
SWIDTH 556 0
DWIDTH 7 0
BBX 6 9 0 0
BITMAP
34
58
00
D8
6C
6C
C8
D8
DC
ENDCHAR
STARTCHAR ograve
ENCODING 242
SWIDTH 500 0
DWIDTH 6 0
BBX 6 9 0 0
BITMAP
30
08
00
38
6C
CC
CC
D8
70
ENDCHAR
STARTCHAR oacute
ENCODING 243
SWIDTH 500 0
DWIDTH 6 0
BBX 6 9 0 0
BITMAP
0C
10
00
38
6C
CC
CC
D8
70
ENDCHAR
STARTCHAR ocircumflex
ENCODING 244
SWIDTH 500 0
DWIDTH 6 0
BBX 6 9 0 0
BITMAP
18
34
00
38
6C
CC
CC
D8
70
ENDCHAR
STARTCHAR otilde
ENCODING 245
SWIDTH 500 0
DWIDTH 6 0
BBX 6 9 0 0
BITMAP
34
58
00
38
6C
CC
CC
D8
70
ENDCHAR
STARTCHAR odieresis
ENCODING 246
SWIDTH 500 0
DWIDTH 6 0
BBX 6 9 0 0
BITMAP
28
28
00
38
6C
CC
CC
D8
70
ENDCHAR
STARTCHAR divide
ENCODING 247
SWIDTH 570 0
DWIDTH 7 0
BBX 5 5 1 1
BITMAP
20
00
F8
00
20
ENDCHAR
STARTCHAR oslash
ENCODING 248
SWIDTH 500 0
DWIDTH 6 0
BBX 6 8 0 -1
BITMAP
08
38
4C
DC
EC
C8
70
40
ENDCHAR
STARTCHAR ugrave
ENCODING 249
SWIDTH 556 0
DWIDTH 7 0
BBX 7 9 0 0
BITMAP
30
08
00
E6
6C
6C
CC
D8
6C
ENDCHAR
STARTCHAR uacute
ENCODING 250
SWIDTH 556 0
DWIDTH 7 0
BBX 7 9 0 0
BITMAP
0C
10
00
E6
6C
6C
CC
D8
6C
ENDCHAR
STARTCHAR ucircumflex
ENCODING 251
SWIDTH 556 0
DWIDTH 7 0
BBX 7 9 0 0
BITMAP
18
34
00
E6
6C
6C
CC
D8
6C
ENDCHAR
STARTCHAR udieresis
ENCODING 252
SWIDTH 556 0
DWIDTH 7 0
BBX 7 9 0 0
BITMAP
14
14
00
E6
6C
6C
CC
D8
6C
ENDCHAR
STARTCHAR yacute
ENCODING 253
SWIDTH 444 0
DWIDTH 6 0
BBX 7 12 -1 -3
BITMAP
06
08
00
76
32
34
34
1C
18
10
D0
E0
ENDCHAR
STARTCHAR thorn
ENCODING 254
SWIDTH 500 0
DWIDTH 6 0
BBX 8 12 -2 -3
BITMAP
1C
0C
08
1E
1B
1B
33
36
3C
60
60
F0
ENDCHAR
STARTCHAR ydieresis
ENCODING 255
SWIDTH 444 0
DWIDTH 6 0
BBX 7 12 -1 -3
BITMAP
14
14
00
76
32
34
34
1C
18
10
D0
E0
ENDCHAR
STARTCHAR uni0400
ENCODING 1024
SWIDTH 667 0
DWIDTH 8 0
BBX 9 12 0 0
BITMAP
1800
0400
0000
3F80
1980
1800
3100
3E00
3200
6000
6300
FE00
ENDCHAR
STARTCHAR afii10023
ENCODING 1025
SWIDTH 667 0
DWIDTH 8 0
BBX 9 12 0 0
BITMAP
0900
0900
0000
3F80
1980
1800
3100
3E00
3200
6000
6300
FE00
ENDCHAR
STARTCHAR afii10051
ENCODING 1026
SWIDTH 960 0
DWIDTH 12 0
BBX 9 12 2 -3
BITMAP
7F00
DA00
1800
3000
3F00
3180
6180
6300
E300
0600
0C00
1800
ENDCHAR
STARTCHAR afii10052
ENCODING 1027
SWIDTH 640 0
DWIDTH 8 0
BBX 9 12 0 0
BITMAP
0180
0200
0000
3F80
1980
1800
3000
3000
3000
6000
6000
F000
ENDCHAR
STARTCHAR afii10053
ENCODING 1028
SWIDTH 640 0
DWIDTH 8 0
BBX 8 9 1 0
BITMAP
1F
33
62
60
F8
C0
C2
EC
78
ENDCHAR
STARTCHAR afii10054
ENCODING 1029
SWIDTH 556 0
DWIDTH 8 0
BBX 7 9 1 0
BITMAP
3A
66
62
30
18
0C
8C
CC
F8
ENDCHAR
STARTCHAR afii10055
ENCODING 1030
SWIDTH 389 0
DWIDTH 5 0
BBX 6 9 0 0
BITMAP
3C
18
18
30
30
30
60
60
F0
ENDCHAR
STARTCHAR afii10056
ENCODING 1031
SWIDTH 389 0
DWIDTH 5 0
BBX 6 12 0 0
BITMAP
24
24
00
3C
18
18
30
30
30
60
60
F0
ENDCHAR
STARTCHAR afii10057
ENCODING 1032
SWIDTH 500 0
DWIDTH 6 0
BBX 8 10 -1 -1
BITMAP
0F
06
0C
0C
0C
18
18
D8
F0
60
ENDCHAR
STARTCHAR afii10058
ENCODING 1033
SWIDTH 1040 0
DWIDTH 13 0
BBX 13 9 0 0
BITMAP
1FE0
08C0
08C0
1180
11F0
1198
2318
A330
C7E0
ENDCHAR
STARTCHAR afii10059
ENCODING 1034
SWIDTH 1040 0
DWIDTH 13 0
BBX 13 9 0 0
BITMAP
3DE0
18C0
18C0
3180
3FF0
3198
6318
6330
E7E0
ENDCHAR
STARTCHAR afii10060
ENCODING 1035
SWIDTH 960 0
DWIDTH 12 0
BBX 9 9 2 0
BITMAP
7F00
DA00
1800
3000
3F00
3180
6180
6300
E780
ENDCHAR
STARTCHAR afii10061
ENCODING 1036
SWIDTH 640 0
DWIDTH 8 0
BBX 10 12 -1 0
BITMAP
0180
0200
0000
3DC0
1980
1300
3600
3C00
3600
6600
6300
F780
ENDCHAR
STARTCHAR afii10062
ENCODING 1038
SWIDTH 720 0
DWIDTH 9 0
BBX 10 12 0 0
BITMAP
0500
0600
0000
79C0
3080
3080
1900
1A00
0C00
0800
D000
6000
ENDCHAR
STARTCHAR afii10145
ENCODING 1039
SWIDTH 800 0
DWIDTH 10 0
BBX 11 10 0 -1
BITMAP
3DE0
18C0
18C0
3180
3180
3180
6300
6300
FF80
1800
ENDCHAR
STARTCHAR afii10017
ENCODING 1040
SWIDTH 640 0
DWIDTH 8 0
BBX 8 9 0 0
BITMAP
06
0E
0E
1A
12
3E
66
46
EF
ENDCHAR
STARTCHAR afii10018
ENCODING 1041
SWIDTH 640 0
DWIDTH 8 0
BBX 9 9 0 0
BITMAP
3F80
1980
1000
3000
3E00
3300
6300
6600
FC00
ENDCHAR
STARTCHAR afii10019
ENCODING 1042
SWIDTH 640 0
DWIDTH 8 0
BBX 9 9 0 0
BITMAP
3F00
1980
1180
3300
3E00
3300
6300
6600
FC00
ENDCHAR
STARTCHAR afii10020
ENCODING 1043
SWIDTH 640 0
DWIDTH 8 0
BBX 9 9 0 0
BITMAP
3F80
1980
1800
3000
3000
3000
6000
6000
F000
ENDCHAR
STARTCHAR afii10021
ENCODING 1044
SWIDTH 800 0
DWIDTH 10 0
BBX 12 10 -1 -1
BITMAP
0FF0
0460
0460
08C0
08C0
10C0
1180
2180
7FC0
C180
ENDCHAR
STARTCHAR afii10022
ENCODING 1045
SWIDTH 640 0
DWIDTH 8 0
BBX 9 9 0 0
BITMAP
3F80
1980
1800
3100
3E00
3200
6000
6300
FE00
ENDCHAR
STARTCHAR afii10024
ENCODING 1046
SWIDTH 1040 0
DWIDTH 13 0
BBX 15 9 -1 0
BITMAP
1DEE
0CCC
0498
06B0
07E0
1DB0
3330
6318
F7BC
ENDCHAR
STARTCHAR afii10025
ENCODING 1047
SWIDTH 640 0
DWIDTH 8 0
BBX 8 9 1 0
BITMAP
3E
33
23
06
1C
06
06
8C
78
ENDCHAR
STARTCHAR afii10026
ENCODING 1048
SWIDTH 800 0
DWIDTH 10 0
BBX 11 9 0 0
BITMAP
3DE0
18C0
19C0
3380
3580
3980
7300
6300
E780
ENDCHAR
STARTCHAR afii10027
ENCODING 1049
SWIDTH 800 0
DWIDTH 10 0
BBX 11 12 0 0
BITMAP
0280
0300
0000
3DE0
18C0
19C0
3380
3580
3980
7300
6300
E780
ENDCHAR
STARTCHAR afii10028
ENCODING 1050
SWIDTH 640 0
DWIDTH 8 0
BBX 10 9 -1 0
BITMAP
3DC0
1980
1300
3600
3C00
3600
6600
6300
F780
ENDCHAR
STARTCHAR afii10029
ENCODING 1051
SWIDTH 800 0
DWIDTH 10 0
BBX 11 9 0 0
BITMAP
1FE0
08C0
08C0
1180
1180
1180
2300
A300
C780
ENDCHAR
STARTCHAR afii10030
ENCODING 1052
SWIDTH 880 0
DWIDTH 11 0
BBX 12 9 0 0
BITMAP
3870
18E0
18E0
3940
2AC0
2EC0
6D80
6D80
E9C0
ENDCHAR
STARTCHAR afii10031
ENCODING 1053
SWIDTH 800 0
DWIDTH 10 0
BBX 11 9 0 0
BITMAP
3DE0
18C0
18C0
3180
3F80
3180
6300
6300
E780
ENDCHAR
STARTCHAR afii10032
ENCODING 1054
SWIDTH 720 0
DWIDTH 9 0
BBX 8 9 1 0
BITMAP
1E
33
63
63
C3
C6
C6
CC
78
ENDCHAR
STARTCHAR afii10033
ENCODING 1055
SWIDTH 800 0
DWIDTH 10 0
BBX 11 9 0 0
BITMAP
3FE0
18C0
18C0
3180
3180
3180
6300
6300
E780
ENDCHAR
STARTCHAR afii10034
ENCODING 1056
SWIDTH 640 0
DWIDTH 8 0
BBX 9 9 0 0
BITMAP
3F00
1980
1980
3380
3F00
3000
6000
6000
F000
ENDCHAR
STARTCHAR afii10035
ENCODING 1057
SWIDTH 640 0
DWIDTH 8 0
BBX 8 9 1 0
BITMAP
1F
33
62
60
C0
C0
C2
EC
78
ENDCHAR
STARTCHAR afii10036
ENCODING 1058
SWIDTH 560 0
DWIDTH 7 0
BBX 8 9 1 0
BITMAP
7F
DA
18
30
30
30
60
60
F0
ENDCHAR
STARTCHAR afii10037
ENCODING 1059
SWIDTH 720 0
DWIDTH 9 0
BBX 10 9 0 0
BITMAP
79C0
3080
3080
1900
1A00
0C00
0800
D000
6000
ENDCHAR
STARTCHAR afii10038
ENCODING 1060
SWIDTH 880 0
DWIDTH 11 0
BBX 10 9 1 0
BITMAP
0F00
0600
3F80
6CC0
CCC0
CD80
7F00
1800
3C00
ENDCHAR
STARTCHAR afii10039
ENCODING 1061
SWIDTH 640 0
DWIDTH 8 0
BBX 10 9 -1 0
BITMAP
7BC0
3180
1B00
0E00
0C00
1E00
3600
6300
F780
ENDCHAR
STARTCHAR afii10040
ENCODING 1062
SWIDTH 800 0
DWIDTH 10 0
BBX 11 10 0 -1
BITMAP
3CE0
18C0
18C0
3180
3180
3180
6300
6300
FF80
0300
ENDCHAR
STARTCHAR afii10041
ENCODING 1063
SWIDTH 800 0
DWIDTH 10 0
BBX 9 9 2 0
BITMAP
F780
6300
C300
C600
7E00
0600
0C00
0C00
1E00
ENDCHAR
STARTCHAR afii10042
ENCODING 1064
SWIDTH 960 0
DWIDTH 12 0
BBX 13 9 0 0
BITMAP
3D38
1930
1930
3260
3260
3260
64C0
64C0
FFE0
ENDCHAR
STARTCHAR afii10043
ENCODING 1065
SWIDTH 960 0
DWIDTH 12 0
BBX 13 10 0 -1
BITMAP
3D38
1930
1930
3260
3260
3260
64C0
64C0
FFE0
00C0
ENDCHAR
STARTCHAR afii10044
ENCODING 1066
SWIDTH 720 0
DWIDTH 9 0
BBX 8 9 1 0
BITMAP
7C
58
90
30
3E
33
63
66
FC
ENDCHAR
STARTCHAR afii10045
ENCODING 1067
SWIDTH 1040 0
DWIDTH 13 0
BBX 14 9 0 0
BITMAP
3C3C
1818
1018
3030
3E30
3330
6360
6660
FCF0
ENDCHAR
STARTCHAR afii10046
ENCODING 1068
SWIDTH 640 0
DWIDTH 8 0
BBX 8 9 0 0
BITMAP
3C
18
10
30
3E
33
63
66
FC
ENDCHAR
STARTCHAR afii10047
ENCODING 1069
SWIDTH 720 0
DWIDTH 9 0
BBX 8 9 1 0
BITMAP
3E
33
23
03
1F
06
06
8C
78
ENDCHAR
STARTCHAR afii10048
ENCODING 1070
SWIDTH 1040 0
DWIDTH 13 0
BBX 13 9 0 0
BITMAP
3CF0
1998
1B18
3318
3E18
3630
6630
6660
F3C0
ENDCHAR
STARTCHAR afii10049
ENCODING 1071
SWIDTH 720 0
DWIDTH 9 0
BBX 10 9 0 0
BITMAP
0FC0
1980
3180
3300
1F00
1B00
3200
6600
CF00
ENDCHAR
STARTCHAR afii10065
ENCODING 1072
SWIDTH 560 0
DWIDTH 7 0
BBX 7 6 0 0
BITMAP
34
6C
CC
D8
DA
6C
ENDCHAR
STARTCHAR afii10066
ENCODING 1073
SWIDTH 480 0
DWIDTH 6 0
BBX 7 9 0 0
BITMAP
02
1C
30
78
6C
CC
CC
D8
70
ENDCHAR
STARTCHAR afii10067
ENCODING 1074
SWIDTH 480 0
DWIDTH 6 0
BBX 6 6 0 0
BITMAP
38
6C
D8
EC
CC
78
ENDCHAR
STARTCHAR afii10068
ENCODING 1075
SWIDTH 480 0
DWIDTH 6 0
BBX 6 6 0 0
BITMAP
38
4C
18
60
C8
70
ENDCHAR
STARTCHAR afii10069
ENCODING 1076
SWIDTH 480 0
DWIDTH 6 0
BBX 6 9 0 0
BITMAP
30
08
0C
3C
6C
CC
CC
D8
70
ENDCHAR
STARTCHAR afii10070
ENCODING 1077
SWIDTH 480 0
DWIDTH 6 0
BBX 6 6 0 0
BITMAP
38
6C
D8
E0
C8
70
ENDCHAR
STARTCHAR afii10072
ENCODING 1078
SWIDTH 640 0
DWIDTH 8 0
BBX 9 6 0 0
BITMAP
6D80
AD00
1E00
3E00
5A80
DB00
ENDCHAR
STARTCHAR afii10073
ENCODING 1079
SWIDTH 480 0
DWIDTH 6 0
BBX 6 6 0 0
BITMAP
38
4C
38
0C
CC
78
ENDCHAR
STARTCHAR afii10074
ENCODING 1080
SWIDTH 560 0
DWIDTH 7 0
BBX 7 6 0 0
BITMAP
E6
6C
6C
CC
D8
6C
ENDCHAR
STARTCHAR afii10075
ENCODING 1081
SWIDTH 560 0
DWIDTH 7 0
BBX 7 9 0 0
BITMAP
14
18
00
E6
6C
6C
CC
D8
6C
ENDCHAR
STARTCHAR afii10076
ENCODING 1082
SWIDTH 480 0
DWIDTH 6 0
BBX 7 6 0 0
BITMAP
76
3C
78
68
68
CC
ENDCHAR
STARTCHAR afii10077
ENCODING 1083
SWIDTH 480 0
DWIDTH 6 0
BBX 7 6 -1 0
BITMAP
0C
16
16
2C
2C
C6
ENDCHAR
STARTCHAR afii10078
ENCODING 1084
SWIDTH 720 0
DWIDTH 9 0
BBX 11 6 -1 0
BITMAP
0C40
0CC0
1DC0
1E80
2DA0
C9C0
ENDCHAR
STARTCHAR afii10079
ENCODING 1085
SWIDTH 480 0
DWIDTH 6 0
BBX 6 6 0 0
BITMAP
EC
6C
7C
C8
D8
DC
ENDCHAR
STARTCHAR afii10080
ENCODING 1086
SWIDTH 480 0
DWIDTH 6 0
BBX 6 6 0 0
BITMAP
38
6C
CC
CC
D8
70
ENDCHAR
STARTCHAR afii10081
ENCODING 1087
SWIDTH 480 0
DWIDTH 6 0
BBX 6 6 0 0
BITMAP
D8
6C
6C
C8
D8
DC
ENDCHAR
STARTCHAR afii10082
ENCODING 1088
SWIDTH 480 0
DWIDTH 6 0
BBX 8 9 -2 -3
BITMAP
3E
1B
1B
33
36
3C
60
60
F0
ENDCHAR
STARTCHAR afii10083
ENCODING 1089
SWIDTH 400 0
DWIDTH 5 0
BBX 5 6 0 0
BITMAP
38
58
C0
C0
D8
70
ENDCHAR
STARTCHAR afii10084
ENCODING 1090
SWIDTH 720 0
DWIDTH 9 0
BBX 10 6 0 0
BITMAP
DB00
6D80
6D80
C900
DB40
DB80
ENDCHAR
STARTCHAR afii10085
ENCODING 1091
SWIDTH 480 0
DWIDTH 6 0
BBX 7 9 -1 -3
BITMAP
76
32
34
34
1C
18
10
D0
E0
ENDCHAR
STARTCHAR afii10086
ENCODING 1092
SWIDTH 720 0
DWIDTH 9 0
BBX 9 12 0 -3
BITMAP
0300
0600
0400
3F00
6D80
C980
C980
DB00
7E00
1000
3000
6000
ENDCHAR
STARTCHAR afii10087
ENCODING 1093
SWIDTH 480 0
DWIDTH 6 0
BBX 6 6 0 0
BITMAP
6C
38
30
38
58
DC
ENDCHAR
STARTCHAR afii10088
ENCODING 1094
SWIDTH 560 0
DWIDTH 7 0
BBX 7 8 0 -2
BITMAP
E6
6C
6C
CC
D8
6C
08
08
ENDCHAR
STARTCHAR afii10089
ENCODING 1095
SWIDTH 560 0
DWIDTH 7 0
BBX 7 6 0 0
BITMAP
E6
6C
6C
3C
18
0C
ENDCHAR
STARTCHAR afii10090
ENCODING 1096
SWIDTH 800 0
DWIDTH 10 0
BBX 10 6 0 0
BITMAP
ECC0
6D80
4980
DB00
DB00
6D80
ENDCHAR
STARTCHAR afii10091
ENCODING 1097
SWIDTH 800 0
DWIDTH 10 0
BBX 10 8 0 -2
BITMAP
ECC0
6D80
4980
DB00
DB00
6D80
0100
0100
ENDCHAR
STARTCHAR afii10092
ENCODING 1098
SWIDTH 560 0
DWIDTH 7 0
BBX 7 6 0 0
BITMAP
F0
B0
3C
66
66
3C
ENDCHAR
STARTCHAR afii10093
ENCODING 1099
SWIDTH 720 0
DWIDTH 9 0
BBX 9 6 0 0
BITMAP
E180
6180
7980
CD00
CF00
7B80
ENDCHAR
STARTCHAR afii10094
ENCODING 1100
SWIDTH 480 0
DWIDTH 6 0
BBX 6 6 0 0
BITMAP
E0
60
78
CC
CC
78
ENDCHAR
STARTCHAR afii10095
ENCODING 1101
SWIDTH 480 0
DWIDTH 6 0
BBX 6 6 0 0
BITMAP
38
4C
1C
0C
D8
70
ENDCHAR
STARTCHAR afii10096
ENCODING 1102
SWIDTH 720 0
DWIDTH 9 0
BBX 9 6 0 0
BITMAP
C700
6D80
7980
D980
DB00
CE00
ENDCHAR
STARTCHAR afii10097
ENCODING 1103
SWIDTH 480 0
DWIDTH 6 0
BBX 7 6 -1 0
BITMAP
3E
66
66
3C
2C
CE
ENDCHAR
STARTCHAR uni0450
ENCODING 1104
SWIDTH 444 0
DWIDTH 6 0
BBX 6 9 0 0
BITMAP
30
08
00
38
6C
D8
E0
C8
70
ENDCHAR
STARTCHAR afii10071
ENCODING 1105
SWIDTH 444 0
DWIDTH 6 0
BBX 6 9 0 0
BITMAP
28
28
00
38
6C
D8
E0
C8
70
ENDCHAR
STARTCHAR afii10099
ENCODING 1106
SWIDTH 480 0
DWIDTH 6 0
BBX 6 12 0 -3
BITMAP
70
30
F8
60
78
6C
CC
D8
D8
18
30
60
ENDCHAR
STARTCHAR afii10100
ENCODING 1107
SWIDTH 480 0
DWIDTH 6 0
BBX 6 9 0 0
BITMAP
0C
10
00
38
4C
18
60
C8
70
ENDCHAR
STARTCHAR afii10101
ENCODING 1108
SWIDTH 400 0
DWIDTH 5 0
BBX 5 6 0 0
BITMAP
38
48
E0
C0
D8
70
ENDCHAR
STARTCHAR afii10102
ENCODING 1109
SWIDTH 389 0
DWIDTH 5 0
BBX 5 6 0 0
BITMAP
78
C8
60
38
98
F0
ENDCHAR
STARTCHAR afii10103
ENCODING 1110
SWIDTH 278 0
DWIDTH 4 0
BBX 4 9 0 0
BITMAP
30
30
00
60
60
60
C0
C0
E0
ENDCHAR
STARTCHAR afii10104
ENCODING 1111
SWIDTH 278 0
DWIDTH 3 0
BBX 4 9 0 0
BITMAP
50
50
00
60
60
60
C0
C0
E0
ENDCHAR
STARTCHAR afii10105
ENCODING 1112
SWIDTH 278 0
DWIDTH 4 0
BBX 7 12 -2 -3
BITMAP
06
06
00
1C
0C
18
18
18
30
30
B0
60
ENDCHAR
STARTCHAR afii10106
ENCODING 1113
SWIDTH 720 0
DWIDTH 9 0
BBX 10 6 -1 0
BITMAP
0C00
1600
1780
2CC0
2CC0
C780
ENDCHAR
STARTCHAR afii10107
ENCODING 1114
SWIDTH 720 0
DWIDTH 9 0
BBX 9 6 0 0
BITMAP
EC00
6C00
7F00
C980
D980
CF00
ENDCHAR
STARTCHAR afii10108
ENCODING 1115
SWIDTH 480 0
DWIDTH 6 0
BBX 6 9 0 0
BITMAP
70
30
F8
60
78
6C
C8
D8
DC
ENDCHAR
STARTCHAR afii10109
ENCODING 1116
SWIDTH 480 0
DWIDTH 6 0
BBX 7 9 0 0
BITMAP
06
08
00
76
3C
78
68
68
CC
ENDCHAR
STARTCHAR afii10110
ENCODING 1118
SWIDTH 480 0
DWIDTH 6 0
BBX 7 12 -1 -3
BITMAP
0A
0C
00
76
32
34
34
1C
18
10
D0
E0
ENDCHAR
STARTCHAR afii10193
ENCODING 1119
SWIDTH 560 0
DWIDTH 7 0
BBX 7 8 0 -2
BITMAP
E6
6C
6C
CC
D8
6C
20
20
ENDCHAR
STARTCHAR afii10146
ENCODING 1122
SWIDTH 720 0
DWIDTH 9 0
BBX 8 9 1 0
BITMAP
3C
18
FE
30
3E
33
63
66
FC
ENDCHAR
STARTCHAR afii10194
ENCODING 1123
SWIDTH 560 0
DWIDTH 7 0
BBX 7 9 0 0
BITMAP
38
18
10
FC
30
3C
66
66
3C
ENDCHAR
STARTCHAR afii10147
ENCODING 1138
SWIDTH 720 0
DWIDTH 9 0
BBX 8 9 1 0
BITMAP
1E
33
63
63
FF
C6
C6
CC
78
ENDCHAR
STARTCHAR afii10195
ENCODING 1139
SWIDTH 480 0
DWIDTH 6 0
BBX 6 6 0 0
BITMAP
38
6C
FC
CC
D8
70
ENDCHAR
STARTCHAR afii10148
ENCODING 1140
SWIDTH 640 0
DWIDTH 8 0
BBX 9 9 1 0
BITMAP
F180
6380
6600
6C00
6800
7800
7000
6000
4000
ENDCHAR
STARTCHAR afii10196
ENCODING 1141
SWIDTH 480 0
DWIDTH 6 0
BBX 6 6 0 0
BITMAP
E4
6C
68
78
50
60
ENDCHAR
STARTCHAR afii10050
ENCODING 1168
SWIDTH 640 0
DWIDTH 8 0
BBX 10 10 0 0
BITMAP
00C0
3F80
1800
1800
3000
3000
3000
6000
6000
F000
ENDCHAR
STARTCHAR afii10098
ENCODING 1169
SWIDTH 400 0
DWIDTH 5 0
BBX 6 7 0 0
BITMAP
0C
78
60
60
C0
C0
60
ENDCHAR
STARTCHAR uni04AA
ENCODING 1194
SWIDTH 667 0
DWIDTH 8 0
BBX 8 12 1 -3
BITMAP
1F
33
62
60
C0
C0
C2
EC
78
10
58
30
ENDCHAR
STARTCHAR uni04AB
ENCODING 1195
SWIDTH 444 0
DWIDTH 5 0
BBX 5 9 0 -3
BITMAP
38
58
C0
C0
D8
70
20
B0
60
ENDCHAR
STARTCHAR uni04AE
ENCODING 1198
SWIDTH 611 0
DWIDTH 7 0
BBX 9 9 0 0
BITMAP
7B80
3300
3200
3400
1800
1800
3000
3000
F800
ENDCHAR
STARTCHAR uni04C0
ENCODING 1216
SWIDTH 389 0
DWIDTH 5 0
BBX 6 9 0 0
BITMAP
3C
18
18
30
30
30
60
60
F0
ENDCHAR
STARTCHAR uni04D2
ENCODING 1234
SWIDTH 667 0
DWIDTH 8 0
BBX 8 12 0 0
BITMAP
09
09
00
06
0E
0E
1A
12
3E
66
46
EF
ENDCHAR
STARTCHAR uni04D3
ENCODING 1235
SWIDTH 500 0
DWIDTH 7 0
BBX 7 9 0 0
BITMAP
28
28
00
34
6C
CC
D8
DA
6C
ENDCHAR
STARTCHAR uni04D4
ENCODING 1236
SWIDTH 944 0
DWIDTH 12 0
BBX 14 9 -2 0
BITMAP
07FC
03CC
06C0
0D90
09F0
1FA0
3300
6318
F7F0
ENDCHAR
STARTCHAR uni04D5
ENCODING 1237
SWIDTH 722 0
DWIDTH 10 0
BBX 10 6 0 0
BITMAP
3780
6EC0
CD80
DE00
DC80
6F00
ENDCHAR
STARTCHAR uni04E6
ENCODING 1254
SWIDTH 722 0
DWIDTH 9 0
BBX 8 12 1 0
BITMAP
12
12
00
1E
33
63
63
C3
C6
C6
CC
78
ENDCHAR
STARTCHAR uni04E7
ENCODING 1255
SWIDTH 500 0
DWIDTH 6 0
BBX 6 9 0 0
BITMAP
28
28
00
38
6C
CC
CC
D8
70
ENDCHAR
STARTCHAR uni04E8
ENCODING 1256
SWIDTH 720 0
DWIDTH 9 0
BBX 8 9 1 0
BITMAP
1E
33
63
63
FF
C6
C6
CC
78
ENDCHAR
STARTCHAR uni04E9
ENCODING 1257
SWIDTH 480 0
DWIDTH 6 0
BBX 6 6 0 0
BITMAP
38
6C
FC
CC
D8
70
ENDCHAR
ENDFONT
